<svg width="30" height="30" viewBox="0 0 30 30" fill="none" xmlns="http://www.w3.org/2000/svg">
<path d="M0.833254 15C0.833964 11.8941 1.85535 8.8745 3.74023 6.40592C5.62511 3.93735 8.269 2.15661 11.265 1.33777C14.261 0.518935 17.4431 0.707376 20.3216 1.87409C23.2 3.04081 25.6153 5.12115 27.1956 7.79493C28.776 10.4687 29.4338 13.5878 29.068 16.672C28.7021 19.7563 27.3328 22.6349 25.1707 24.8647C23.0087 27.0946 20.1738 28.5521 17.1023 29.013C14.0308 29.474 10.8929 28.9127 8.17159 27.4157L2.66359 29.093C2.41791 29.1678 2.15651 29.1745 1.90735 29.1122C1.65819 29.05 1.43064 28.9211 1.24904 28.7395C1.06744 28.5579 0.938619 28.3304 0.876362 28.0812C0.814104 27.8321 0.820749 27.5707 0.895587 27.325L2.57292 21.8085C1.43042 19.7211 0.832124 17.3796 0.833254 15ZM9.33325 13.5833C9.33325 13.9591 9.48251 14.3194 9.74819 14.5851C10.0139 14.8507 10.3742 15 10.7499 15H19.2499C19.6256 15 19.986 14.8507 20.2517 14.5851C20.5173 14.3194 20.6666 13.9591 20.6666 13.5833C20.6666 13.2076 20.5173 12.8473 20.2517 12.5816C19.986 12.3159 19.6256 12.1667 19.2499 12.1667H10.7499C10.3742 12.1667 10.0139 12.3159 9.74819 12.5816C9.48251 12.8473 9.33325 13.2076 9.33325 13.5833ZM10.7499 17.8333C10.3742 17.8333 10.0139 17.9826 9.74819 18.2483C9.48251 18.5139 9.33325 18.8743 9.33325 19.25C9.33325 19.6257 9.48251 19.9861 9.74819 20.2517C10.0139 20.5174 10.3742 20.6667 10.7499 20.6667H16.4166C16.7923 20.6667 17.1526 20.5174 17.4183 20.2517C17.684 19.9861 17.8333 19.6257 17.8333 19.25C17.8333 18.8743 17.684 18.5139 17.4183 18.2483C17.1526 17.9826 16.7923 17.8333 16.4166 17.8333H10.7499Z" fill="white"/>
</svg>
