<svg width="22" height="29" viewBox="0 0 22 29" fill="none" xmlns="http://www.w3.org/2000/svg">
<path d="M5.55458 0.833313H18.6304C19.5753 0.833313 20.5231 0.98773 21.1847 1.6734C21.8363 2.35056 21.9596 3.2884 21.9596 4.16248V20.8791C21.9596 21.6484 21.8576 22.4049 21.4637 23.0169C21.2365 23.3699 20.9185 23.6552 20.5429 23.8428V25.1291C20.5429 26.0726 20.3899 27.0204 19.7057 27.682C19.0285 28.3365 18.0907 28.4583 17.2166 28.4583H2.12625C1.56266 28.4583 1.02216 28.2344 0.623647 27.8359C0.225132 27.4374 0.00124873 26.8969 0.00124873 26.3333V6.1699C-0.00300127 5.4644 -0.00725111 4.58323 0.185416 3.77998C0.421999 2.79965 0.967415 1.84906 2.12767 1.25831C2.6065 1.01465 3.11083 0.918313 3.64916 0.875813C4.16625 0.833313 4.79667 0.833313 5.55458 0.833313ZM2.12625 26.3333H17.2166C17.9915 26.3333 18.1842 26.1973 18.2281 26.1548C18.2635 26.1208 18.4179 25.9352 18.4179 25.1291V24.2083H4.25125C3.68766 24.2083 3.14716 24.4322 2.74865 24.8307C2.35013 25.2292 2.12625 25.7697 2.12625 26.3333Z" fill="white"/>
</svg>
