<svg width="29" height="30" viewBox="0 0 29 30" fill="none" xmlns="http://www.w3.org/2000/svg">
<path d="M13.5792 7.91524H8.07549C7.49388 7.91506 6.9263 8.09388 6.44983 8.42741C5.97335 8.76095 5.61107 9.23303 5.41216 9.77957L0.0854896 24.4307C-0.102927 24.9478 0.0259895 25.5272 0.414156 25.9168L0.829239 26.3319L9.92707 17.2341C9.92566 17.1972 9.91574 17.1604 9.91574 17.1236C9.91574 16.7033 10.0404 16.2924 10.2739 15.943C10.5074 15.5935 10.8392 15.3212 11.2275 15.1603C11.6158 14.9995 12.0431 14.9574 12.4553 15.0394C12.8675 15.1214 13.2462 15.3238 13.5433 15.621C13.8405 15.9182 14.0429 16.2968 14.1249 16.709C14.2069 17.1212 14.1648 17.5485 14.004 17.9368C13.8431 18.3251 13.5708 18.6569 13.2213 18.8904C12.8719 19.1239 12.461 19.2486 12.0407 19.2486C12.0039 19.2486 11.9671 19.2387 11.9302 19.2372L2.83241 28.3351L3.24749 28.7502C3.43825 28.9407 3.67941 29.0728 3.94265 29.131C4.20588 29.1892 4.48027 29.1711 4.73357 29.0788L19.3847 23.7507C19.9313 23.5518 20.4034 23.1895 20.7369 22.7131C21.0704 22.2366 21.2492 21.669 21.2491 21.0874V15.5837L24.081 12.7532L16.4112 5.08332L13.5792 7.91524ZM25.4127 10.8364L18.3293 3.75307L21.3327 0.748322L28.416 7.83165L25.4127 10.8364Z" fill="white"/>
</svg>
