<svg width="34" height="34" viewBox="0 0 34 34" fill="none" xmlns="http://www.w3.org/2000/svg">
<path d="M17.408 0C22.7545 0 27.7049 2.3715 30.9876 6.3648C31.0811 6.47799 31.1509 6.60885 31.1928 6.74957C31.2348 6.89029 31.2479 7.038 31.2316 7.18392C31.2153 7.32984 31.1697 7.47098 31.0977 7.59895C31.0257 7.72691 30.9287 7.83909 30.8125 7.9288C30.5759 8.11427 30.2763 8.20026 29.9773 8.16852C29.6784 8.13679 29.4035 7.98982 29.2111 7.7588C27.7758 6.01999 25.9723 4.62151 23.9309 3.6643C21.8894 2.70709 19.661 2.21502 17.4063 2.2236C9.0508 2.2236 2.2763 8.84 2.2763 17C2.2763 25.16 9.0508 31.7764 17.4063 31.7764C19.6935 31.7854 21.9533 31.2792 24.0181 30.2953C26.0829 29.3115 27.8997 27.8753 29.3335 26.0933C29.5227 25.8599 29.7953 25.7093 30.0936 25.6735C30.3919 25.6376 30.6924 25.7193 30.9315 25.9012C31.0488 25.9894 31.1471 26.1002 31.2207 26.2272C31.2942 26.3541 31.3415 26.4945 31.3598 26.6401C31.378 26.7857 31.3668 26.9334 31.3268 27.0746C31.2868 27.2157 31.2189 27.3474 31.127 27.4618C27.8494 31.5588 22.8327 34 17.408 34C7.7911 34 0 26.3891 0 17C0 7.6109 7.7928 0 17.408 0ZM29.0666 12.172L33.6668 16.7739C34.1122 17.2176 34.1207 17.9299 33.6872 18.3651L29.1924 22.8582C29.087 22.962 28.9622 23.0438 28.825 23.0992C28.6879 23.1545 28.5411 23.1822 28.3933 23.1806C28.2454 23.179 28.0993 23.1482 27.9634 23.09C27.8274 23.0317 27.7043 22.9472 27.6012 22.8412C27.4949 22.7381 27.41 22.615 27.3514 22.479C27.2929 22.343 27.2618 22.1967 27.2601 22.0486C27.2584 21.9006 27.286 21.7536 27.3413 21.6162C27.3966 21.4789 27.4786 21.3538 27.5825 21.2483L30.2124 18.6184H12.6854C12.5375 18.6206 12.3906 18.5936 12.2532 18.5389C12.1157 18.4841 11.9905 18.4028 11.8846 18.2994C11.7788 18.1961 11.6944 18.0729 11.6363 17.9368C11.5783 17.8007 11.5477 17.6545 11.5464 17.5066C11.5464 16.8912 12.0564 16.3931 12.6854 16.3931H30.1427L27.4941 13.7445C27.388 13.6415 27.3033 13.5185 27.2449 13.3826C27.1866 13.2467 27.1556 13.1007 27.1539 12.9528C27.1521 12.8049 27.1796 12.6582 27.2348 12.5209C27.29 12.3837 27.3718 12.2588 27.4754 12.1533C27.5809 12.0497 27.7058 11.9679 27.843 11.9127C27.9802 11.8575 28.127 11.83 28.2749 11.8318C28.4228 11.8335 28.5688 11.8645 28.7047 11.9228C28.8406 11.9812 28.9636 12.0659 29.0666 12.172Z" fill="white" fill-opacity="0.26"/>
</svg>
