<svg width="32" height="32" viewBox="0 0 32 32" fill="none" xmlns="http://www.w3.org/2000/svg">
<path d="M14.4165 22.3333H17.5832V15.6833L20.1165 18.2167L22.3332 16L15.9998 9.66667L9.66651 16L11.8832 18.2167L14.4165 15.6833V22.3333ZM15.9998 31.8333C13.8096 31.8333 11.7512 31.4174 9.82484 30.5857C7.89845 29.7539 6.22276 28.626 4.79776 27.2021C3.37276 25.7781 2.24489 24.1024 1.41417 22.175C0.583451 20.2476 0.167561 18.1892 0.166506 16C0.16545 13.8108 0.581339 11.7524 1.41417 9.82501C2.24701 7.89756 3.37487 6.22187 4.79776 4.79792C6.22064 3.37398 7.89634 2.24612 9.82484 1.41434C11.7533 0.582561 13.8117 0.166672 15.9998 0.166672C18.188 0.166672 20.2463 0.582561 22.1748 1.41434C24.1033 2.24612 25.779 3.37398 27.2019 4.79792C28.6248 6.22187 29.7532 7.89756 30.5871 9.82501C31.421 11.7524 31.8363 13.8108 31.8332 16C31.83 18.1892 31.4141 20.2476 30.5855 22.175C29.7569 24.1024 28.629 25.7781 27.2019 27.2021C25.7748 28.626 24.0991 29.7544 22.1748 30.5873C20.2506 31.4201 18.1922 31.8355 15.9998 31.8333ZM15.9998 28.6667C19.5359 28.6667 22.5311 27.4396 24.9853 24.9854C27.4394 22.5313 28.6665 19.5361 28.6665 16C28.6665 12.4639 27.4394 9.46875 24.9853 7.01459C22.5311 4.56042 19.5359 3.33334 15.9998 3.33334C12.4637 3.33334 9.46859 4.56042 7.01442 7.01459C4.56026 9.46875 3.33317 12.4639 3.33317 16C3.33317 19.5361 4.56026 22.5313 7.01442 24.9854C9.46859 27.4396 12.4637 28.6667 15.9998 28.6667Z" fill="white"/>
</svg>
